<svg width="316" height="119" viewBox="0 0 316 119" fill="none" xmlns="http://www.w3.org/2000/svg">
<path d="M189.727 102.387V107.748H165.868V74.9092H174.246V102.387H189.727ZM222.046 107.506C220.031 107.925 218.193 108.134 216.532 108.134C213.244 108.134 211.141 107.104 210.222 105.044C208.702 106.074 207.182 106.863 205.662 107.41C204.178 107.925 202.587 108.183 200.891 108.183C199.335 108.183 197.939 107.893 196.702 107.313C195.465 106.734 194.493 105.945 193.786 104.947C193.114 103.917 192.779 102.79 192.779 101.566C192.779 99.6348 193.326 98.0895 194.422 96.9304C195.518 95.7392 197.02 94.7895 198.929 94.0812C200.838 93.3407 203.665 92.4875 207.412 91.5217L209.639 90.9422V90.3144C209.639 87.1271 208.119 85.5335 205.079 85.5335C203.559 85.5335 201.986 85.8393 200.36 86.451C198.735 87.0305 196.879 88.0286 194.793 89.4451L192.991 84.4227C197.869 81.5252 202.746 80.0764 207.624 80.0764C210.911 80.0764 213.403 80.8974 215.1 82.5393C216.832 84.1491 217.698 86.8856 217.698 90.749V100.794C217.698 101.502 217.839 102.017 218.122 102.339C218.44 102.629 218.953 102.774 219.66 102.774C220.261 102.774 220.95 102.677 221.727 102.484L222.046 107.506ZM200.891 100.649C200.891 102.13 201.792 102.87 203.595 102.87C204.514 102.87 205.45 102.693 206.405 102.339C207.359 101.953 208.437 101.406 209.639 100.697V95.1436L208.26 95.5783C205.468 96.4475 203.542 97.2524 202.481 97.9929C201.421 98.7012 200.891 99.5865 200.891 100.649ZM253.889 107.506C251.874 107.925 250.036 108.134 248.375 108.134C245.087 108.134 242.984 107.104 242.065 105.044C240.545 106.074 239.025 106.863 237.505 107.41C236.021 107.925 234.43 108.183 232.734 108.183C231.178 108.183 229.782 107.893 228.545 107.313C227.308 106.734 226.336 105.945 225.629 104.947C224.957 103.917 224.622 102.79 224.622 101.566C224.622 99.6348 225.169 98.0895 226.265 96.9304C227.361 95.7392 228.863 94.7895 230.772 94.0812C232.681 93.3407 235.508 92.4875 239.255 91.5217L241.482 90.9422V90.3144C241.482 87.1271 239.962 85.5335 236.922 85.5335C235.402 85.5335 233.829 85.8393 232.203 86.451C230.578 87.0305 228.722 88.0286 226.636 89.4451L224.834 84.4227C229.712 81.5252 234.589 80.0764 239.467 80.0764C242.754 80.0764 245.246 80.8974 246.943 82.5393C248.675 84.1491 249.541 86.8856 249.541 90.749V100.794C249.541 101.502 249.682 102.017 249.965 102.339C250.283 102.629 250.796 102.774 251.503 102.774C252.104 102.774 252.793 102.677 253.571 102.484L253.889 107.506ZM232.734 100.649C232.734 102.13 233.635 102.87 235.438 102.87C236.357 102.87 237.293 102.693 238.248 102.339C239.202 101.953 240.28 101.406 241.482 100.697V95.1436L240.103 95.5783C237.311 96.4475 235.385 97.2524 234.324 97.9929C233.264 98.7012 232.734 99.5865 232.734 100.649ZM274.067 80.0764C276.719 80.0764 279.069 80.6398 281.119 81.7667C283.17 82.8613 284.759 84.4871 285.891 86.6442C287.058 88.769 287.641 91.3124 287.641 94.2744C287.641 99.1036 286.121 102.661 283.081 104.947C280.077 107.233 276.083 108.376 271.098 108.376C269.402 108.376 267.97 108.231 266.804 107.941V119H258.691V80.7042H264.736L265.531 82.7325C268.076 80.9618 270.921 80.0764 274.067 80.0764ZM270.568 103.064C276.507 103.064 279.476 100.069 279.476 94.0812C279.476 90.9583 278.875 88.7368 277.673 87.4169C276.507 86.0969 275.004 85.4369 273.166 85.4369C271.893 85.4369 270.762 85.5818 269.773 85.8715C268.783 86.1291 267.793 86.5637 266.804 87.1754V102.629C268.147 102.919 269.402 103.064 270.568 103.064ZM302.639 108.376C300.66 108.376 298.751 108.199 296.913 107.844C295.075 107.49 293.467 107.024 292.088 106.444L293.732 101.325C296.877 102.484 299.811 103.064 302.533 103.064C304.159 103.064 305.467 102.838 306.456 102.387C307.481 101.905 307.994 101.18 307.994 100.214C307.994 99.4094 307.517 98.7494 306.562 98.2343C305.643 97.7192 304.177 97.1397 302.162 96.4958C300.182 95.8519 298.574 95.2563 297.337 94.709C296.1 94.1295 295.022 93.3568 294.103 92.391C293.219 91.3929 292.777 90.1695 292.777 88.7208C292.777 85.8876 293.908 83.7466 296.171 82.2979C298.433 80.8169 301.508 80.0764 305.396 80.0764C307.022 80.0764 308.666 80.2374 310.327 80.5594C311.988 80.8491 313.455 81.2676 314.728 81.815L313.031 86.9822C310.486 85.952 308.012 85.4369 305.608 85.4369C304.088 85.4369 302.904 85.6461 302.056 86.0647C301.207 86.451 300.783 87.0466 300.783 87.8515C300.783 88.6564 301.225 89.3003 302.109 89.7832C302.992 90.2339 304.389 90.749 306.297 91.3285C308.277 91.908 309.92 92.4875 311.228 93.0671C312.536 93.6466 313.649 94.4836 314.568 95.5783C315.523 96.6729 316 98.0573 316 99.7314C316 102.436 314.851 104.561 312.554 106.106C310.256 107.619 306.951 108.376 302.639 108.376Z" fill="black"/>
<g clip-path="url(#clip0)">
<path d="M68.0647 80.2367H103.129" stroke="white" stroke-width="7.27" stroke-miterlimit="10"/>
<path d="M68.0647 90.4972H103.129" stroke="white" stroke-width="7.27" stroke-miterlimit="10"/>
<path d="M64.8369 85.3652H106.817" stroke="white" stroke-width="7.96" stroke-miterlimit="10"/>
<path d="M100.384 26.0462C105.289 26.0462 109.264 22.4119 109.264 17.9289C109.264 13.4459 105.289 9.81165 100.384 9.81165C95.4799 9.81165 91.5042 13.4459 91.5042 17.9289C91.5042 22.4119 95.4799 26.0462 100.384 26.0462Z" fill="#010101"/>
<path d="M92.9276 17.929H95.0706C95.0706 16.6371 95.632 15.3981 96.6314 14.4846C97.6307 13.5711 98.9861 13.0579 100.399 13.0579V11.1095C99.4189 11.1086 98.4478 11.2843 97.5416 11.6265C96.6353 11.9688 95.8117 12.4709 95.1179 13.1042C94.424 13.7375 93.8734 14.4896 93.4976 15.3174C93.1218 16.1453 92.9281 17.0327 92.9276 17.929Z" fill="white"/>
<path d="M48.664 39.6469C55.2249 39.6469 60.5435 34.7852 60.5435 28.7879C60.5435 22.7907 55.2249 17.929 48.664 17.929C42.1031 17.929 36.7844 22.7907 36.7844 28.7879C36.7844 34.7852 42.1031 39.6469 48.664 39.6469Z" fill="#010101"/>
<path d="M139.365 44.2848C145.926 44.2848 151.244 39.4231 151.244 33.4259C151.244 27.4286 145.926 22.5669 139.365 22.5669C132.804 22.5669 127.485 27.4286 127.485 33.4259C127.485 39.4231 132.804 44.2848 139.365 44.2848Z" fill="#010101"/>
<path d="M119.758 11.4052C123.204 11.4052 125.997 8.85207 125.997 5.70261C125.997 2.55314 123.204 0 119.758 0C116.313 0 113.52 2.55314 113.52 5.70261C113.52 8.85207 116.313 11.4052 119.758 11.4052Z" fill="#010101"/>
<path d="M58.5984 15.5143C62.0439 15.5143 64.837 12.9611 64.837 9.81168C64.837 6.66221 62.0439 4.10907 58.5984 4.10907C55.153 4.10907 52.3599 6.66221 52.3599 9.81168C52.3599 12.9611 55.153 15.5143 58.5984 15.5143Z" fill="#010101"/>
<path d="M38.7369 28.9514L41.2567 28.7914C41.1406 27.2659 41.6914 25.7606 42.7882 24.6059C43.8851 23.4513 45.4384 22.7417 47.1071 22.633L46.9282 20.3331C44.5927 20.4856 42.4188 21.4786 40.8832 23.0942C39.3476 24.7098 38.5758 26.8163 38.7369 28.9514Z" fill="white"/>
<path d="M88.5048 20.3332C88.504 18.8953 88.8166 17.4717 89.4244 16.1455C90.0322 14.8193 90.9229 13.6171 92.0446 12.6091C80.6257 13.2667 71.6808 20.3192 71.6808 28.9619H93.2322C91.7667 27.9568 90.5767 26.6541 89.7563 25.1567C88.9359 23.6592 88.5074 22.0079 88.5048 20.3332Z" fill="#010101"/>
<path d="M69.8003 28.9514H66.1082C66.1082 28.5652 66.1843 19.4251 73.2717 13.2945C77.7365 9.44289 83.9294 7.70323 91.6105 8.11379L91.3974 11.4818C84.7554 11.1338 79.5216 12.5569 75.8257 15.7265C69.8954 20.8238 69.8003 28.8714 69.8003 28.9514Z" fill="black"/>
<path d="M151.244 45.6557C151.244 45.6557 158.857 63.2158 140.084 66.7995C140.084 66.7995 152.409 70.7172 150.03 83.7577C150.03 83.7577 160.026 79.8122 164.407 70.3241C168.788 60.836 162.995 45.2347 151.244 45.6557Z" fill="black"/>
<path d="M16.3291 20.782C18.7256 20.782 20.6683 19.0062 20.6683 16.8156C20.6683 14.625 18.7256 12.8492 16.3291 12.8492C13.9326 12.8492 11.9899 14.625 11.9899 16.8156C11.9899 19.0062 13.9326 20.782 16.3291 20.782Z" fill="#010101"/>
<path d="M7.17493 47.6702C11.1375 47.6702 14.3499 44.7338 14.3499 41.1117C14.3499 37.4895 11.1375 34.5531 7.17493 34.5531C3.21233 34.5531 0 37.4895 0 41.1117C0 44.7338 3.21233 47.6702 7.17493 47.6702Z" fill="#010101"/>
<path d="M1.58331 41.7345L3.31899 41.6231C3.24046 40.5703 3.62126 39.532 4.37809 38.7352C5.13492 37.9384 6.20617 37.4481 7.35751 37.3714L7.23571 35.7848C6.43693 35.8356 5.65695 36.0298 4.94039 36.3564C4.22383 36.683 3.58476 37.1356 3.05975 37.6882C2.53474 38.2408 2.1341 38.8826 1.88076 39.5769C1.62741 40.2712 1.52633 41.0044 1.58331 41.7345Z" fill="white"/>
<path d="M34.7633 32.0202C34.7633 32.0202 24.3073 34.1286 26.9184 45.2416C26.9184 45.2416 38.7599 39.619 46.6048 54.0965C46.6048 54.0965 47.6782 45.0989 52.7558 43.9751C52.7558 43.9682 36.145 44.3892 34.7633 32.0202Z" fill="#010101"/>
<path d="M23.3177 39.7338L19.6294 39.5599C20.4706 24.8702 34.4741 22.9879 34.6073 22.9705L35.0983 26.3141L34.8509 24.6405L35.1021 26.3106C34.653 26.3906 23.9914 27.8937 23.3177 39.7338Z" fill="#010101"/>
<path d="M20.2231 49.2811C19.5438 47.0535 19.1604 44.7592 19.0812 42.4477H22.7733C22.8495 44.4607 23.1829 46.4586 23.7668 48.4008L20.2231 49.2811Z" fill="#010101"/>
<path d="M107.213 32.3925L104.586 30.0335C107.11 27.6745 114.228 24.2683 123.055 28.2591L121.418 31.2826C112.755 27.3753 107.27 32.3438 107.213 32.3925Z" fill="#010101"/>
<path d="M109.812 34.1078C109.812 34.1078 116.352 30.3327 121.121 34.1286C121.121 34.1286 123.565 42.1902 129.765 45.6487C127.481 45.6487 125.997 48.0459 125.997 48.0459C125.997 48.0459 115.431 34.5636 109.812 34.1078Z" fill="#010101"/>
<path d="M23.9952 83.7577C23.9952 83.7577 11.3734 74.6141 21.1176 67.0257C22.092 66.1002 27.7825 64.1448 31.5203 65.9575C31.5051 65.9575 21.5743 70.578 23.9952 83.7577Z" fill="#010101"/>
<path d="M16.7021 86.6455C11.9252 78.8136 10.749 72.2064 13.2155 66.9978C16.1959 60.6968 23.367 58.9954 23.6715 58.9188L24.5774 62.1894C24.5203 62.1894 18.8222 63.5985 16.5841 68.3721C14.6239 72.5473 15.7467 78.156 19.9223 84.9998L16.7021 86.6455Z" fill="#010101"/>
<path d="M130.568 33.3006H133.286C133.288 31.6531 134.005 30.0736 135.28 28.9086C136.554 27.7437 138.282 27.0884 140.084 27.0865V24.6023C137.561 24.6023 135.14 25.5187 133.356 27.15C131.571 28.7812 130.568 30.9937 130.568 33.3006Z" fill="white"/>
<path d="M128.209 64.5136C128.133 64.0926 128.049 63.6646 127.95 63.2262C127.95 62.9131 126.108 30.1379 86.6245 30.1379C53.7721 30.1379 48.5613 52.8231 47.7239 60.6272C47.6553 61.2708 47.6173 61.8101 47.5944 62.2311C47.5488 62.8505 47.4955 63.602 47.4498 64.3918C15.7697 66.4029 28.5286 101.401 28.5286 101.401H145.828C145.828 101.401 158.206 67.4049 128.209 64.5136Z" fill="black"/>
<path d="M56.2651 101.401C56.2651 106.043 52.7366 109.835 48.424 109.835H43.5786C39.266 109.835 35.7375 106.043 35.7375 101.401" fill="black"/>
<path d="M104.153 75.6788H69.0925V78.2082H104.153V75.6788Z" fill="white"/>
<path d="M104.153 85.9427H69.0925V88.4722H104.153V85.9427Z" fill="white"/>
<path d="M107.845 80.6924H65.8646V83.4585H107.845V80.6924Z" fill="white"/>
<path d="M55.7589 63.2401H119.758C119.758 63.2401 118.441 36.8843 86.8566 36.8843C55.2716 36.8843 55.7589 63.2401 55.7589 63.2401Z" fill="white"/>
<path d="M41.9915 91.9585C47.5643 91.9585 52.082 87.8289 52.082 82.7348C52.082 77.6407 47.5643 73.5111 41.9915 73.5111C36.4186 73.5111 31.9009 77.6407 31.9009 82.7348C31.9009 87.8289 36.4186 91.9585 41.9915 91.9585Z" fill="#FDFDFD"/>
<path d="M138.215 101.401C138.215 106.043 134.687 109.835 130.374 109.835H125.521C121.209 109.835 117.68 106.043 117.68 101.401" fill="black"/>
<path d="M129.849 91.9585C135.422 91.9585 139.94 87.8289 139.94 82.7348C139.94 77.6407 135.422 73.5111 129.849 73.5111C124.276 73.5111 119.759 77.6407 119.759 82.7348C119.759 87.8289 124.276 91.9585 129.849 91.9585Z" fill="#FDFDFD"/>
<path d="M41.9913 88.9628C45.7542 88.9628 48.8046 86.1744 48.8046 82.7348C48.8046 79.2951 45.7542 76.5068 41.9913 76.5068C38.2284 76.5068 35.178 79.2951 35.178 82.7348C35.178 86.1744 38.2284 88.9628 41.9913 88.9628Z" fill="black"/>
<path d="M129.849 88.9628C133.612 88.9628 136.663 86.1744 136.663 82.7348C136.663 79.2951 133.612 76.5068 129.849 76.5068C126.086 76.5068 123.036 79.2951 123.036 82.7348C123.036 86.1744 126.086 88.9628 129.849 88.9628Z" fill="black"/>
<path d="M125.331 67.9825L123.999 64.0578L130.37 58.8667C129.873 57.8335 129.725 56.6878 129.946 55.5771C130.167 54.4664 130.747 53.4417 131.611 52.6352L135.737 48.8671C136.909 47.7999 138.496 47.2007 140.151 47.2007C141.805 47.2007 143.392 47.7999 144.564 48.8671L144.686 48.9784C145.855 50.0494 146.511 51.5002 146.511 53.0127C146.511 54.5252 145.855 55.976 144.686 57.047L140.564 60.836C139.548 61.7427 138.224 62.3057 136.811 62.4322C135.398 62.5587 133.98 62.2411 132.791 61.5319L125.331 67.9825ZM126.149 64.6041L126.229 64.8442L132.171 59.7017L126.149 64.6041ZM132.704 59.2668L133.332 59.7574C134.158 60.4124 135.224 60.7603 136.317 60.7326C137.411 60.7049 138.453 60.3036 139.239 59.6078L143.365 55.8327C144.182 55.0834 144.641 54.0688 144.641 53.011C144.641 51.9532 144.182 50.9386 143.365 50.1893L143.243 50.0779C142.424 49.3302 141.313 48.9104 140.155 48.9104C138.997 48.9104 137.886 49.3302 137.066 50.0779L132.94 53.8495C132.278 54.4778 131.861 55.288 131.754 56.1547C131.646 57.0215 131.854 57.8964 132.346 58.644L132.727 59.2459L132.704 59.2668Z" fill="black"/>
<path d="M49.6193 67.9825L42.1627 61.5318C40.9739 62.2417 39.5558 62.5597 38.1426 62.4332C36.7294 62.3066 35.4057 61.7432 34.3902 60.836L30.2603 57.047C29.0918 55.976 28.4357 54.5252 28.4357 53.0127C28.4357 51.5002 29.0918 50.0494 30.2603 48.9785L30.3821 48.8671C31.5532 47.7982 33.1405 47.1978 34.7955 47.1978C36.4505 47.1978 38.0378 47.7982 39.209 48.8671L43.3388 52.6352C44.2024 53.4421 44.7817 54.467 45.0022 55.5776C45.2227 56.6883 45.0742 57.8339 44.5759 58.8667L50.9515 64.0578L49.6193 67.9825ZM42.7679 59.7017L48.7058 64.8442L48.7895 64.6041L42.7679 59.7017ZM34.7746 48.9158C34.2013 48.9141 33.6334 49.0162 33.1035 49.2162C32.5737 49.4163 32.0925 49.7104 31.6877 50.0814L31.5659 50.1927C30.7472 50.9411 30.2873 51.9561 30.2873 53.0145C30.2873 54.0728 30.7472 55.0878 31.5659 55.8362L35.6919 59.6113C36.4764 60.3093 37.5193 60.7121 38.6137 60.7398C39.708 60.7676 40.7738 60.4181 41.5993 59.7609L42.2236 59.2703L42.2007 59.2494L42.5814 58.6475C43.0724 57.8995 43.28 57.0244 43.172 56.1576C43.0639 55.2909 42.6463 54.4809 41.9838 53.853L37.8577 50.0814C37.0472 49.3367 35.9466 48.9162 34.7974 48.9123L34.7746 48.9158Z" fill="black"/>
<path d="M144.028 49.5838L143.906 49.4724C142.908 48.5684 141.56 48.0612 140.155 48.0612C138.75 48.0612 137.401 48.5684 136.403 49.4724L132.277 53.244C131.463 54.0014 130.946 54.9845 130.808 56.0391C130.67 57.0938 130.919 58.1605 131.516 59.0719L125.045 64.3291L125.75 66.4167L132.689 60.4114C133.692 61.2122 134.99 61.637 136.322 61.6008C137.653 61.5647 138.921 61.0703 139.871 60.2166L143.997 56.445C144.991 55.5363 145.552 54.3053 145.558 53.0201C145.564 51.735 145.014 50.4998 144.028 49.5838Z" fill="black"/>
<path d="M30.9227 49.5838L31.0445 49.4724C32.0424 48.5684 33.3906 48.0612 34.7956 48.0612C36.2006 48.0612 37.5488 48.5684 38.5468 49.4724L42.6728 53.244C43.4875 54.0014 44.0042 54.9845 44.142 56.0391C44.2798 57.0938 44.0308 58.1605 43.4341 59.0719L49.9048 64.3291L49.1969 66.4167L42.2579 60.4114C41.2541 61.2122 39.9566 61.637 38.6249 61.6008C37.2932 61.5647 36.0255 61.0703 35.0754 60.2166L30.9493 56.445C29.9556 55.5359 29.3952 54.3046 29.3902 53.0194C29.3852 51.7342 29.936 50.4993 30.9227 49.5838Z" fill="black"/>
</g>
<defs>
<clipPath id="clip0">
<rect width="165.868" height="109.839" fill="white"/>
</clipPath>
</defs>
</svg>
